<svg id="Warstwa_1" data-name="Warstwa 1" xmlns="http://www.w3.org/2000/svg" viewBox="0 0 177.91 187.84"><defs><style>.cls-1{fill-rule:evenodd}</style></defs><path class="cls-1" d="M75.85 172.09c-.25-.07-.33-.69-.32-1.81s.1-2.75.09-4.84a51.44 51.44 0 00-.53-7.57 42.68 42.68 0 00-2.58-9.68 53.59 53.59 0 00-5.24-9.84c-2.26-3.41-5-7-8-10.84-2.41-3.08-5-6.41-7.44-10.14a64.19 64.19 0 01-6.56-12.55 47.39 47.39 0 013.85-40.38 46.73 46.73 0 0133.57-21.86l1-.11a45.48 45.48 0 0121.23 2.92 45 45 0 0117 11.68 44.12 44.12 0 0110 19.24 43.41 43.41 0 010 20.15 61.57 61.57 0 01-3.63 10.09c-1.39 3.08-2.87 5.92-4.22 8.6a321 321 0 00-15.32 36.63c-1.6 4.49-2.81 8-3.73 10.39s-1.57 3.62-2 3.54-.48-1.48-.26-4.05a99.72 99.72 0 011.76-11c1-4.74 2.41-10.48 4.44-17a219.35 219.35 0 018-21.71c1.22-2.84 2.52-5.69 3.68-8.57a49.1 49.1 0 002.77-8.78 35.06 35.06 0 00-.56-16 34.58 34.58 0 00-21.57-23.9 36.17 36.17 0 00-16.61-2.24l-.67.04a36.61 36.61 0 00-15.4 5.75 37.18 37.18 0 00-11.18 11.27 37.89 37.89 0 00-5.54 16.28 38.87 38.87 0 001.64 16.2 52.31 52.31 0 005.23 11c2.11 3.49 4.41 6.83 6.61 10.08A137.58 137.58 0 0172.89 135a58.4 58.4 0 014.86 11.45 42 42 0 011.61 11.12 37.37 37.37 0 01-.82 8.21 22.69 22.69 0 01-1.54 4.83c-.49 1.06-.9 1.55-1.14 1.48z"/><path class="cls-1" d="M78.83 152.31c.33-2.74 6-4.33 12.65-3.54s11.79 3.66 11.46 6.4-6 4.32-12.64 3.53-11.79-3.65-11.47-6.39zm-3.34 14.43c.22-2.75 7.21-4.42 15.59-3.73s15 3.48 14.76 6.23-7.21 4.42-15.58 3.73-15-3.48-14.77-6.23zm.51 13.57c.4-2.73 7.21-4 15.19-2.8s14.14 4.36 13.74 7.09-7.22 4-15.2 2.8S75.58 183 76 180.31zM21.89 26.71c1.74-2.14 9.71 1.43 17.8 8s13.23 13.59 11.5 15.74-9.71-1.43-17.8-8-13.24-13.6-11.5-15.74zM81 0c2.75-.22 5.54 6.47 6.24 14.93s-1 15.53-3.72 15.76-5.52-6.47-6.25-14.93S78.24.23 81 0zm71.08 16.52c2.22 1.65-.91 9.59-7 17.72s-12.79 13.4-15 11.75.91-9.59 7-17.73 12.79-13.39 15-11.74zm-9.8 61.92c-1.19-2.49 5.79-8.34 15.58-13s18.72-6.53 19.92-4S172 69.68 162.2 74.4s-18.72 6.53-19.92 4zM.16 69.09c1.3-2.44 10.05-.32 19.53 4.72s16.14 11.12 14.84 13.56-10 .32-19.53-4.73S-1.13 71.53.16 69.09z"/><path d="M101.92 152.49c-3.06-3.71-17.18-5.37-21.53-2.52-1.19.78-1.19.78-1.19-1.42 0-6.9-4.57-17.08-13.43-29.89-9.65-14-11.49-17.39-13.34-24.71C50 84.42 52.26 71.78 57.75 64c13.64-19.26 39.76-21.76 56.13-5.37 7.89 7.89 11.75 20.54 9.57 31.31-.94 4.66-2 7.57-6.37 17.57-6.84 15.63-12 32.08-14.23 44.9-.16.93-.2.93-.93 0z" fill="#fff"/></svg>